<svg version="1.2" xmlns="http://www.w3.org/2000/svg" viewBox="0 0 190 32" width="1188" height="200">
	<style>
		.s0 { fill: #676767 } 
		.s1 { fill: #ba1817 } 
	</style>
	<path class="s0" d="m5.37 5.2v2.72h3.65v1.99h-3.65v2.76h4.76v2.06h-7.47v-11.6h7.47v2.06h-4.76z"/>
	<path class="s0" d="m19.42 12.58v2.15h-6.99v-11.6h2.68v9.45c0 0 4.3 0 4.31 0z"/>
	<path class="s0" d="m24.14 5.2v2.72h3.65v1.99h-3.65v2.76h4.76v2.06h-7.47v-11.6h7.47v2.06h-4.76z"/>
	<path class="s0" d="m38.77 11.73q0.1-0.01 0.19 0.04 0.1 0.03 0.18 0.13l1.06 1.12q-0.7 0.92-1.76 1.38-1.06 0.48-2.49 0.47-1.33 0-2.37-0.45-1.05-0.45-1.78-1.24-0.73-0.8-1.11-1.88-0.4-1.08-0.39-2.36 0-1.28 0.41-2.38 0.42-1.09 1.19-1.87 0.76-0.79 1.84-1.23 1.07-0.44 2.35-0.45 0.65 0 1.22 0.12 0.58 0.11 1.08 0.31 0.5 0.21 0.93 0.5 0.42 0.28 0.74 0.62l-0.91 1.22q-0.09 0.11-0.2 0.2-0.12 0.09-0.33 0.09-0.15-0.01-0.27-0.07-0.13-0.05-0.26-0.15-0.15-0.09-0.32-0.2-0.17-0.11-0.4-0.2-0.24-0.1-0.55-0.16-0.32-0.06-0.73-0.06-0.67 0.01-1.22 0.24-0.55 0.25-0.95 0.72-0.41 0.48-0.62 1.17-0.22 0.69-0.22 1.57 0 0.89 0.24 1.58 0.25 0.69 0.66 1.17 0.42 0.48 0.98 0.72 0.56 0.25 1.19 0.24 0.36 0.01 0.67-0.04 0.3-0.04 0.57-0.11 0.27-0.08 0.5-0.23 0.23-0.14 0.46-0.35 0.1-0.08 0.21-0.13 0.11-0.05 0.22-0.05z"/>
	<path class="s0" d="m49.58 11.73q0.1-0.01 0.19 0.04 0.1 0.03 0.18 0.13l1.06 1.12q-0.7 0.92-1.76 1.38-1.06 0.48-2.49 0.47-1.33 0-2.37-0.45-1.05-0.45-1.78-1.24-0.73-0.8-1.11-1.88-0.4-1.08-0.4-2.36 0-1.28 0.42-2.38 0.42-1.09 1.19-1.87 0.76-0.79 1.84-1.23 1.07-0.44 2.34-0.45 0.66 0 1.23 0.12 0.58 0.11 1.08 0.31 0.5 0.21 0.93 0.5 0.42 0.28 0.74 0.62l-0.91 1.22q-0.09 0.11-0.2 0.2-0.12 0.09-0.33 0.09-0.15-0.01-0.27-0.07-0.13-0.05-0.26-0.15-0.15-0.09-0.32-0.2-0.17-0.11-0.41-0.2-0.23-0.1-0.54-0.16-0.32-0.06-0.74-0.06-0.66 0.01-1.21 0.24-0.55 0.25-0.95 0.72-0.41 0.48-0.62 1.17-0.22 0.69-0.22 1.57 0 0.89 0.24 1.58 0.25 0.69 0.66 1.17 0.42 0.48 0.98 0.72 0.55 0.25 1.19 0.24 0.36 0.01 0.67-0.04 0.3-0.04 0.57-0.11 0.27-0.08 0.49-0.23 0.24-0.14 0.47-0.35 0.09-0.08 0.21-0.13 0.11-0.05 0.22-0.05z"/>
	<path fill-rule="evenodd" class="s0" d="m55.55 3.13v11.6h-2.71v-11.6z"/>
	<path class="s0" d="m69.82 8.93q0 1.26-0.43 2.34-0.44 1.09-1.22 1.89-0.78 0.8-1.9 1.26-1.1 0.45-2.47 0.45-1.36 0-2.47-0.45-1.12-0.46-1.92-1.26-0.79-0.8-1.23-1.89-0.43-1.08-0.43-2.34 0-1.26 0.43-2.34 0.44-1.08 1.23-1.88 0.8-0.8 1.92-1.25 1.12-0.46 2.47-0.46 1.35 0 2.47 0.46 1.1 0.45 1.9 1.25 0.79 0.8 1.22 1.88 0.43 1.07 0.43 2.34zm-2.75 0q0-0.86-0.23-1.55-0.23-0.68-0.65-1.16-0.42-0.47-1.02-0.74-0.61-0.25-1.38-0.25-0.79 0-1.4 0.25-0.61 0.26-1.02 0.74-0.42 0.48-0.65 1.16-0.23 0.69-0.23 1.55 0 0.86 0.23 1.56 0.23 0.69 0.65 1.16 0.41 0.48 1.02 0.74 0.61 0.25 1.4 0.25 0.77 0 1.38-0.25 0.6-0.24 1.02-0.74 0.42-0.47 0.65-1.16 0.23-0.69 0.23-1.56z"/>
	<path class="s0" d="m82.17 3.13v11.6h-1.41q-0.3 0-0.51-0.1-0.21-0.09-0.42-0.34l-5.48-6.92q0.04 0.31 0.04 0.6 0 0.29 0 0.54v6.22h-2.37v-11.6h1.42q0.18-0.01 0.29 0.01 0.12 0 0.22 0.06 0.1 0.05 0.18 0.13 0.09 0.08 0.2 0.21l5.52 6.97q-0.04-0.34-0.05-0.64 0-0.32-0.01-0.6v-6.14h2.37z"/>
	<path class="s0" d="m87.77 5.2v2.72h3.65v1.99h-3.65v2.76h4.77v2.06h-7.48v-11.6h7.48v2.06h-4.77z"/>
	<path class="s0" d="m101.23 5.48q-0.12 0.2-0.25 0.3-0.14 0.09-0.35 0.1-0.18 0-0.39-0.12-0.21-0.11-0.48-0.25-0.27-0.15-0.61-0.25-0.34-0.12-0.78-0.12-0.76 0-1.13 0.32-0.38 0.32-0.37 0.87 0 0.35 0.23 0.59 0.22 0.23 0.58 0.39 0.37 0.16 0.82 0.3 0.48 0.14 0.96 0.32 0.49 0.17 0.95 0.4 0.46 0.24 0.82 0.6 0.36 0.36 0.58 0.87 0.23 0.52 0.23 1.25 0 0.8-0.28 1.5-0.28 0.71-0.81 1.22-0.53 0.52-1.3 0.82-0.78 0.31-1.77 0.31-0.55 0-1.1-0.12-0.56-0.11-1.09-0.31-0.53-0.21-0.99-0.48-0.45-0.29-0.79-0.62l0.79-1.26q0.1-0.13 0.26-0.23 0.15-0.09 0.34-0.09 0.24 0 0.48 0.16 0.24 0.15 0.55 0.33 0.3 0.18 0.7 0.32 0.41 0.16 0.94 0.16 0.74 0 1.14-0.32 0.41-0.32 0.41-1.03 0-0.4-0.23-0.66-0.22-0.25-0.58-0.41-0.37-0.18-0.83-0.29-0.45-0.13-0.95-0.28-0.49-0.16-0.95-0.38-0.46-0.23-0.82-0.6-0.36-0.37-0.58-0.92-0.23-0.56-0.23-1.37 0-0.65 0.26-1.28 0.27-0.63 0.78-1.1 0.51-0.5 1.25-0.78 0.75-0.29 1.7-0.29 0.53 0 1.04 0.09 0.51 0.08 0.96 0.24 0.46 0.17 0.85 0.39 0.39 0.22 0.71 0.52l-0.67 1.26z"/>
	<path class="s0" d="m8.25 23.67h4.13v4.9q-0.9 0.65-1.9 0.95-1.01 0.29-2.11 0.29-1.43 0-2.61-0.45-1.18-0.45-2.01-1.25-0.84-0.79-1.29-1.87-0.46-1.08-0.46-2.36 0-1.28 0.43-2.38 0.43-1.09 1.23-1.88 0.8-0.78 1.94-1.22 1.13-0.44 2.53-0.45 0.73 0 1.36 0.12 0.64 0.11 1.18 0.33 0.53 0.2 0.99 0.49 0.43 0.28 0.79 0.62l-0.78 1.19q-0.19 0.29-0.47 0.34-0.29 0.07-0.62-0.14-0.33-0.19-0.6-0.32-0.28-0.14-0.58-0.23-0.3-0.09-0.62-0.13-0.32-0.04-0.74-0.04-0.76 0-1.35 0.27-0.61 0.27-1.03 0.75-0.42 0.48-0.66 1.16-0.22 0.69-0.22 1.52 0 0.93 0.25 1.64 0.25 0.71 0.72 1.21 0.47 0.5 1.12 0.75 0.65 0.26 1.43 0.25 0.49 0 0.87-0.1 0.4-0.1 0.77-0.25v-1.76h-1.15q-0.25 0-0.39-0.14-0.15-0.13-0.14-0.34v-1.49z"/>
	<path class="s0" d="m18.16 20.14v2.72h3.65v1.99h-3.65v2.76h4.76v2.06h-7.48v-11.6h7.48v2.06h-4.76z"/>
	<path class="s0" d="m35.98 18.08v11.61h-1.4q-0.31-0.01-0.52-0.11-0.21-0.09-0.42-0.34l-5.47-6.92q0.03 0.31 0.03 0.6 0 0.29 0 0.54v6.23h-2.37v-11.61h1.42q0.18 0 0.3 0.01 0.11 0 0.21 0.06 0.1 0.05 0.18 0.13 0.09 0.08 0.2 0.22l5.53 6.97q-0.05-0.35-0.06-0.65 0-0.32-0.01-0.6v-6.14c0 0 2.37 0 2.38 0z"/>
	<path class="s0" d="m42.21 20.14v2.72h3.65v1.99h-3.65v2.76h4.76v2.06h-7.48v-11.6h7.48v2.06h-4.76z"/>
	<path class="s0" d="m59.4 29.69h-2.43q-0.68 0-0.98-0.51l-1.92-3.37q-0.14-0.22-0.31-0.32-0.16-0.1-0.48-0.1h-0.68v4.3h-2.69v-11.61h3.78q1.26 0 2.14 0.25 0.89 0.27 1.44 0.72 0.57 0.46 0.81 1.09 0.25 0.63 0.26 1.37 0 0.57-0.16 1.07-0.15 0.5-0.44 0.92-0.3 0.42-0.73 0.76-0.44 0.34-1 0.55 0.26 0.13 0.49 0.34 0.23 0.2 0.42 0.48l2.47 4.04zm-5.73-6.14q0.56-0.01 0.94-0.14 0.38-0.13 0.63-0.38 0.25-0.25 0.36-0.58 0.11-0.33 0.11-0.71 0-0.77-0.49-1.2-0.5-0.43-1.55-0.43h-1.08v3.45c0 0 1.08 0 1.08-0.01z"/>
	<path class="s0" d="m72.06 29.69h-2.09q-0.34 0-0.57-0.17-0.21-0.17-0.33-0.42l-0.68-2.02h-4.41l-0.69 2.02q-0.09 0.22-0.32 0.41-0.23 0.17-0.55 0.18h-2.11l4.5-11.61h2.75zm-4.27-4.44l-1.08-3.18q-0.11-0.3-0.25-0.71-0.13-0.41-0.27-0.88-0.11 0.48-0.25 0.9-0.14 0.41-0.25 0.72l-1.07 3.17h3.18z"/>
	<path class="s0" d="m81.25 27.53v2.16h-7v-11.61h2.69v9.45h4.29z"/>
	<path class="s0" d="m86.59 20.14v2.72h3.65v1.99h-3.65v2.76h4.77v2.06h-7.48v-11.6h7.48v2.06h-4.77z"/>
	<path class="s0" d="m100.7 20.44q-0.12 0.19-0.26 0.29-0.13 0.1-0.34 0.1-0.19 0-0.39-0.12-0.21-0.11-0.48-0.25-0.27-0.14-0.61-0.25-0.35-0.12-0.79-0.12-0.75 0-1.12 0.32-0.38 0.32-0.37 0.87 0 0.35 0.23 0.59 0.22 0.23 0.58 0.39 0.36 0.16 0.82 0.3 0.48 0.14 0.95 0.32 0.5 0.18 0.95 0.41 0.47 0.23 0.83 0.59 0.35 0.36 0.58 0.88 0.23 0.51 0.23 1.24 0 0.8-0.28 1.51-0.28 0.7-0.81 1.21-0.53 0.52-1.31 0.83-0.77 0.3-1.76 0.3-0.55 0-1.1-0.11-0.56-0.11-1.09-0.32-0.53-0.2-0.99-0.48-0.45-0.28-0.8-0.62l0.8-1.26q0.1-0.13 0.25-0.23 0.16-0.09 0.35-0.08 0.24 0 0.48 0.15 0.24 0.15 0.54 0.33 0.31 0.18 0.71 0.33 0.41 0.15 0.94 0.15 0.74 0 1.14-0.32 0.4-0.32 0.41-1.02 0-0.41-0.23-0.66-0.23-0.26-0.58-0.42-0.37-0.18-0.83-0.29-0.45-0.13-0.95-0.28-0.49-0.15-0.95-0.38-0.46-0.23-0.82-0.6-0.36-0.36-0.59-0.92-0.22-0.55-0.22-1.37 0-0.65 0.26-1.28 0.27-0.63 0.78-1.1 0.51-0.49 1.25-0.78 0.74-0.28 1.7-0.29 0.53 0 1.04 0.09 0.51 0.08 0.96 0.24 0.45 0.17 0.85 0.4 0.39 0.22 0.71 0.51l-0.67 1.26z"/>
	<path class="s1" d="m106.95 29.15v-3.99l8.31-8.75q1.11-1.28 1.77-2.25 0.65-0.98 0.95-1.79 0.29-0.81 0.29-1.58 0-1.26-0.67-2.13-0.67-0.88-2.02-0.88-1.47 0-2.18 1.04-0.71 1.03-0.71 2.79h-6.07l-0.04-0.11q-0.06-2.39 1.04-4.32 1.09-1.93 3.14-3.07 2.05-1.14 4.84-1.13 2.79 0 4.77 0.97 1.99 0.96 3.07 2.71 1.07 1.74 1.07 4.08 0 1.59-0.54 2.93-0.54 1.34-1.77 2.86-1.23 1.52-3.29 3.69l-3.9 4.13 0.04 0.09h5.12l0.27-2.14h4.66v6.86c0 0-18.15 0-18.15-0.01z"/>
	<path class="s1" d="m147.88 29.15v-3.99l8.31-8.75q1.11-1.28 1.77-2.25 0.66-0.98 0.95-1.79 0.29-0.81 0.29-1.58 0-1.26-0.67-2.13-0.67-0.88-2.02-0.88-1.47 0-2.18 1.04-0.71 1.03-0.71 2.79h-6.08l-0.04-0.11q-0.06-2.39 1.04-4.32 1.09-1.93 3.14-3.07 2.05-1.14 4.84-1.13 2.79 0 4.77 0.97 1.99 0.96 3.07 2.71 1.07 1.74 1.07 4.08 0 1.59-0.54 2.93-0.54 1.34-1.77 2.86-1.23 1.52-3.29 3.69l-3.9 4.13 0.04 0.09h5.12l0.27-2.14h4.66v6.86c0 0-18.14 0-18.14-0.01z"/>
	<path class="s1" d="m177.7 29.52q-2.83 0-4.98-1.26-2.14-1.26-3.34-3.6-1.2-2.34-1.2-5.56v-5.19q0-3.39 1.38-5.83 1.38-2.45 3.82-3.77 2.43-1.33 5.61-1.33 1.54 0 2.73 0.26 1.19 0.26 2.66 0.84l-1.05 4.5q-1.03-0.3-2.08-0.51-1.05-0.21-2.05-0.21-2.44 0-3.58 1.46-1.14 1.46-1.12 4.21l0.05 0.09q0.78-0.88 2.06-1.38 1.27-0.5 2.85-0.5 2.34 0 3.99 1.13 1.64 1.14 2.51 3.14 0.86 2 0.86 4.59c0 1.73-0.39 3.22-1.18 4.57q-1.18 2.02-3.23 3.19-2.06 1.17-4.71 1.17zm-0.16-4.73q0.92 0 1.6-0.58 0.68-0.58 1.07-1.57 0.39-0.99 0.39-2.17 0-1.79-0.85-2.9-0.85-1.11-2.48-1.11-0.55 0-1.09 0.13-0.54 0.14-1 0.38-0.46 0.25-0.8 0.62v1.51q0 2.73 0.85 4.21 0.85 1.48 2.3 1.48z"/>
	<path class="s1" d="m143.07 5.66q-2.46-2.68-6.58-2.68c-2.75 0-4.98 0.89-6.61 2.68q-2.45 2.67-2.45 7.88v5.44q0 5.22 2.45 7.88 2.44 2.66 6.64 2.66c2.8 0 4.94-0.89 6.56-2.66q2.44-2.66 2.44-7.88v-5.44q0-5.21-2.45-7.88zm0.29 14.4c0 0-0.03 0.06-0.02 0.08 0.02 0.07-0.01 0.08-0.07 0.09-0.09 0.02-0.2 0.15-0.2 0.24q-0.01 0.31 0 0.62-0.01 0.17-0.14 0.28 0.05 0.04 0.09 0.1-0.05 0.18 0.07 0.32 0.04 0.04 0.06 0.1c0.02 0.06 0.03 0.13-0.06 0.14q-0.11 0.01-0.1 0.11 0.01 0.11-0.1 0.15c-0.05 0.02-0.11 0.05-0.1 0.12-0.14 0.03-0.08 0.24-0.23 0.26q-0.02 0.01-0.03 0.05c0.02 0.16 0.02 0.33 0.19 0.43q0.04 0.03 0.07 0.08-0.01 0-0.04 0-0.06 0.1-0.13 0.19-0.08 0.1-0.15 0.21-0.03 0.05 0 0.11 0.09 0.25 0.2 0.51c0.05 0.12 0.11 0.19 0.26 0.18 0.06 0 0.13 0.07 0.18 0.12 0 0-0.02 0.06-0.04 0.08q-0.07 0.03-0.14 0.07-0.14 0.08-0.07 0.22 0.04 0.11-0.06 0.11c-0.11 0-0.14 0.09-0.19 0.17-0.04 0.07-0.12 0.11-0.15 0.17-0.08 0.15-0.3 0.14-0.32 0.34q0.05 0.03 0.08 0.06c0.11 0.09 0.11 0.23-0.02 0.3-0.07 0.05-0.14 0.1-0.24 0.09q-0.11 0.01-0.06 0.12c0.1 0.23 0.07 0.35-0.11 0.53q-0.17 0.17-0.41 0.13-0.09 0-0.18 0-0.12-0.08-0.24-0.14 0 0-0.02 0-0.17-0.16-0.33-0.31-0.03-0.03-0.06-0.05-0.07-0.05-0.14-0.09-0.15-0.11-0.31-0.22 0 0-0.01 0.02 0 0 0-0.02c0.13-0.25-0.07-0.42-0.27-0.51q-0.06-0.03-0.11-0.04c-0.09-0.03-0.18-0.05-0.23-0.14q-0.01-0.02-0.04-0.03-0.17-0.11-0.34-0.22-0.03-0.02-0.05-0.05c-0.01-0.14-0.13-0.16-0.22-0.21q-0.07-0.04-0.15-0.04c-0.23-0.02-0.41-0.15-0.6-0.26-0.1-0.06-0.22-0.09-0.31-0.18q-0.04-0.04-0.11-0.04c-0.2-0.04-0.38-0.15-0.56-0.24q-0.04-0.04-0.07-0.07-0.06-0.06-0.11-0.1c-0.1-0.03-0.18-0.13-0.3-0.12q-0.03-0.01-0.06-0.07c-0.05-0.05-0.08-0.11-0.14-0.14q-0.13-0.05-0.26-0.09-0.12-0.06-0.24-0.13-0.09-0.05-0.17-0.09-0.03-0.02-0.08-0.04c0.09-0.1-0.03-0.08-0.05-0.12 0.02-0.1 0-0.13-0.11-0.16q-0.04-0.01-0.06-0.04-0.06-0.07-0.11-0.14-0.01 0-0.02-0.02c0.03-0.11-0.07-0.11-0.12-0.15q-0.18-0.1-0.35-0.22-0.08-0.07-0.1-0.2-0.03-0.11-0.13-0.15-0.07-0.02-0.05-0.08-0.01-0.08-0.06-0.16-0.03-0.02-0.12-0.03 0-0.1 0-0.22-0.01-0.05-0.05-0.07-0.06-0.04-0.02-0.1 0.04-0.08 0.1 0c0.18-0.32 0.15-0.48-0.13-0.8-0.08-0.09-0.17-0.16-0.16-0.3q-0.01-0.05-0.05-0.1c-0.04-0.07-0.1-0.13-0.12-0.2-0.03-0.12-0.17-0.15-0.17-0.3 0-0.12-0.13-0.18-0.23-0.24q-0.02-0.01-0.03-0.04-0.06-0.11-0.16-0.15c0.06-0.1 0.03-0.19-0.02-0.29q-0.01-0.03-0.02-0.05c0.05-0.11-0.05-0.15-0.09-0.22-0.07-0.14-0.2-0.19-0.32-0.26q-0.06-0.04-0.11-0.09c-0.04-0.04-0.09-0.08 0-0.13q0-0.01 0-0.06c-0.07-0.18-0.12-0.37-0.25-0.52-0.1-0.11-0.15-0.25-0.23-0.37q-0.08-0.12-0.15-0.24-0.05-0.07-0.05-0.16c0-0.06-0.07-0.13-0.07-0.2 0-0.12-0.09-0.19-0.15-0.28-0.04-0.06-0.04-0.14-0.07-0.2q-0.05-0.11-0.09-0.2c-0.01-0.03-0.05-0.06-0.05-0.08 0.03-0.12-0.03-0.09-0.09-0.05q-0.01 0-0.01-0.01c0-0.05 0.03-0.1 0.02-0.14 0-0.04-0.09-0.03-0.08-0.1 0-0.11-0.07-0.19-0.12-0.28q-0.02-0.03-0.01-0.06c0.06-0.13-0.04-0.21-0.11-0.29-0.04-0.04-0.07-0.06-0.09-0.14-0.02-0.1-0.1-0.2-0.16-0.29q-0.05-0.07-0.12-0.1-0.25-0.14-0.35-0.39-0.07-0.16-0.17-0.28-0.01-0.03-0.01-0.08-0.01-0.09-0.04-0.17-0.06-0.13-0.12-0.25 0 0 0-0.02c-0.25-0.19-0.34-0.54-0.69-0.64-0.14-0.04-0.26-0.16-0.4-0.23q-0.24-0.11-0.48-0.21-0.02-0.01-0.03-0.01c-0.12-0.02-0.15-0.11-0.17-0.21q-0.01-0.1 0.13-0.21 0.01 0 0.03 0.02c0.1 0.08 0.19 0.04 0.21-0.08q0.02-0.21-0.13-0.38-0.08-0.09-0.17-0.16-0.1-0.09-0.08-0.2 0.01-0.06 0.06-0.08c0.08-0.03 0.06-0.07 0.02-0.12q-0.12-0.13-0.24-0.28-0.07-0.08-0.01-0.15 0.01-0.02 0.02-0.04c-0.04-0.1 0.02-0.18 0.03-0.27q0-0.1 0.08-0.16 0.15-0.13 0.25-0.28c0.07-0.11 0.21-0.17 0.25-0.31 0-0.03 0.06-0.05 0.09-0.06q0.14-0.05 0.24-0.18 0.04-0.04 0.1-0.06 0.08-0.04 0.16-0.11c0.04 0 0.09 0 0.07 0.08q0.01 0.03 0.03 0.08 0.04 0.2 0.08 0.41c0 0.04-0.2 0.17-0.24 0.16-0.13-0.04-0.15-0.02-0.13 0.11q0 0 0 0.02c0 0.04-0.06 0.1 0.02 0.13q0.06 0.01 0.15 0-0.05 0.05-0.09 0.09c-0.05 0.04-0.11 0.08-0.07 0.16 0.03 0.05 0.16 0.05 0.21 0q0.06-0.06 0.11-0.12c0.07-0.08 0.1-0.08 0.18-0.02q0.08 0.06 0.18 0.1 0.01 0 0.02 0.01c0.07 0.12 0.16 0.09 0.25 0.04q0.03 0 0.07 0 0.07 0.05 0.16 0.11c-0.03 0.11 0.02 0.27 0.11 0.35q0.03 0.02 0.05 0.04c0.05 0.13 0.17 0.12 0.28 0.13q0.04 0 0.06 0c0.07 0.04 0.09 0 0.12-0.06q0.04-0.06 0.08-0.1 0.03-0.04 0.03-0.08-0.03-0.11 0.07-0.17 0 0 0.02 0c0.11-0.06 0.26-0.09 0.23-0.28-0.06-0.04-0.04-0.11 0-0.19q0.05-0.15 0.12-0.29 0.08-0.15 0.17-0.28 0-0.02 0.01-0.03c0-0.13 0-0.25 0.08-0.36q0.01-0.03 0-0.11c0.07 0.05 0.12 0.08 0.2 0.13q0-0.05 0.01-0.1 0-0.05 0-0.09 0.16-0.2 0.34-0.38 0.05-0.05 0.13-0.07 0.61-0.22 1.22-0.43c0.2-0.07 0.35-0.22 0.52-0.32 0.36-0.22 0.58-0.57 0.85-0.88 0.14-0.16 0.17-0.36 0.22-0.55q0.04-0.14 0.07-0.26 0.09 0.03 0.22 0.07-0.05-0.17-0.08-0.3 0-0.05 0-0.11c0.05-0.13 0.03-0.18-0.09-0.24-0.05-0.02-0.1-0.08-0.1-0.12-0.01-0.12-0.09-0.18-0.19-0.23q-0.03-0.01-0.04-0.04 0.03-0.02 0.06-0.03 0.05 0.01 0.11 0.03c0.08 0.03 0.26 0.02 0.31-0.04q0.02-0.03 0.05-0.11 0.14 0.08 0.27 0.16c0.07 0.05 0.12 0.09 0.21 0.08 0.03 0 0.08 0.04 0.08 0.06 0 0.1 0.1 0.11 0.15 0.15q0.14 0.1 0.28 0.21 0.02 0.02 0.02 0.06-0.01 0.1 0.02 0.18 0.04 0.07 0.11 0.13-0.03 0.02-0.05 0.04c0.14 0.18 0.17 0.2 0.27 0.19q0.13 0.08 0.24 0.15-0.01 0.11 0.14 0.11c0.05 0 0.12 0.04 0.16 0.08q0.1 0.13 0.19 0.28 0.01 0.05-0.03 0.12c-0.04 0.06-0.05 0.1 0.03 0.14 0.1 0.05 0.19 0.12 0.3 0.05 0.01 0 0.05 0.02 0.06 0.04q0.07 0.15 0.11 0.31-0.01 0.08-0.07 0.2 0.05 0.05 0.14 0.14 0.09-0.06 0.13 0.07c0 0.02 0.07 0.04 0.08 0.03 0.08-0.08 0.16 0 0.24 0 0.03-0.03 0.06-0.08 0.08-0.08q0.13 0 0.24 0.05 0.11 0.07 0.22 0 0.04-0.02 0.1-0.02 0.03-0.12 0.18-0.11c0.06 0 0.12-0.07 0.17-0.12q0.06-0.06 0.12-0.13v0.03q0.08 0.03 0.14 0.05c0.06 0.01 0.12 0.02 0.14 0.1 0.02 0.07 0.06 0.05 0.1 0q0.03 0.04 0.06 0.07 0.09 0 0.16 0 0.05 0 0.1-0.02 0.1-0.07 0.21-0.13 0.07-0.03 0.13 0 0.15 0.1 0.29 0.21 0.03 0.03 0.05 0.07c0.03 0 0.06-0.03 0.07-0.02q0.1 0.1 0.26 0.04-0.03 0.05-0.05 0.09 0.02 0.02 0.03 0.02 0.13-0.02 0.18 0.1 0.04 0.03 0.12 0.07-0.01 0.03-0.04 0.1-0.36 0.56-0.71 1.12-0.01 0.03-0.03 0.06c0.11 0.07 0.22 0.13 0.35 0.07q0.17-0.08 0.26 0.1 0.11 0.18 0.26 0.31c0.07 0.06 0.04 0.15-0.05 0.18q-0.03 0-0.04 0c-0.07-0.09-0.13-0.03-0.2 0.01q-0.04-0.03-0.05-0.06c-0.05-0.22-0.21-0.15-0.34-0.15q-0.05 0-0.11-0.03-0.1 0-0.19 0.02-0.03 0.01-0.05 0.03-0.02 0.03-0.02 0.06-0.06 0.17-0.23 0.18-0.2 0-0.38 0.07-0.04 0-0.07 0-0.06 0-0.12 0.02c-0.07 0.01-0.15 0.05-0.22 0.04q-0.18-0.02-0.32 0.07c-0.17 0.09-0.3 0.24-0.5 0.28q-0.03 0-0.04 0.02c-0.02 0.1-0.12 0.13-0.18 0.2-0.04 0.05-0.12 0.07-0.19 0.1q-0.08 0.03-0.15 0.04c-0.09 0.03-0.16 0.07-0.11 0.19 0.02 0.04-0.01 0.1-0.03 0.15q-0.05 0.11-0.06 0.23c-0.02 0.12-0.1 0.24-0.16 0.36q-0.03 0.04-0.07 0.08c-0.1 0.12-0.1 0.18-0.04 0.32q0.05 0.14 0.05 0.3c0 0.1-0.09 0.13-0.17 0.17q-0.26 0.13-0.5 0.3c-0.09 0.06-0.13 0.32-0.07 0.42q0.02 0.04 0.04 0.08 0.07 0.14-0.09 0.11-0.03 0-0.06 0-0.06 0.02-0.13 0.05c0.06 0.07 0.06 0.15-0.07 0.19q0.16 0.14 0.31 0.27 0.05 0.04 0.06 0.09-0.02 0.02-0.09 0.08 0.04 0.05 0.12 0.12c0.07 0.06 0.14 0.1 0.1 0.22-0.02 0.07 0.11 0.26 0.18 0.29q0.14 0.04 0.13 0.18 0 0.11 0.1 0.13 0.11 0.02 0.16 0.14 0.05 0.09 0.14 0.16c0.1 0.09 0.1 0.21 0 0.29q-0.06 0.06-0.11 0.13-0.05 0.05-0.11 0.14 0.04 0 0.07 0.01 0.17 0 0.34 0 0.17 0.01 0.32 0.08 0.11 0.03 0.22 0.05 0.17 0.05 0.17 0.24 0.01 0.06 0.06 0.13c0.04 0.05 0.08 0.1 0.05 0.17-0.03 0.07 0.03 0.07 0.07 0.07q0.34 0 0.69 0 0.12 0 0.25-0.01 0.02 0 0.04 0 0.19-0.14 0.39-0.27 0.09-0.07 0.16-0.15 0.12-0.1 0.25-0.19 0.04-0.03 0.1-0.05 0 0.01 0.02 0.02-0.04 0.07-0.1 0.18 0 0.04 0.05 0.09c0.06 0.06 0.03 0.1-0.03 0.14q-0.04 0.03-0.05 0.07 0 0.69-0.02 1.38 0 0 0.01 0.02c0.09-0.1 0.15-0.04 0.22 0.04 0.07 0.08 0.17 0.07 0.26 0.03q0.08-0.02 0.14-0.08c0.1-0.09 0.23-0.08 0.35-0.08q0.03 0.01 0.07 0.03 0.05 0.03 0.11 0.02 0.11 0 0.16 0.08c0.32 0.56 0.67 1.1 0.92 1.7 0.03 0.08 0.07 0.16-0.03 0.22z"/>
</svg>